<svg width="94" height="94" viewBox="0 0 94 94" fill="none" xmlns="http://www.w3.org/2000/svg">
<path id="Vector" d="M93.6523 43.9744C93.6582 43.9346 93.6582 43.8941 93.6523 43.8543C93.6009 42.7027 93.4921 41.5543 93.3263 40.4137C93.3263 40.2389 93.3263 40.0751 93.2502 39.9003C93.1741 39.7255 93.1742 39.4088 93.1416 39.1466C92.1606 33.0381 89.9971 27.1823 86.7737 21.9108C86.426 21.3428 86.0638 20.7857 85.6871 20.2396C83.9066 17.6023 81.868 15.1507 79.6018 12.9215C78.4963 11.8167 77.328 10.7773 76.1028 9.8085C75.3421 9.18591 74.5488 8.60702 73.7447 8.03904L73.6252 7.94073L73.5274 7.87519L73.1036 7.59121C72.5929 7.23077 72.017 6.8594 71.4193 6.49895H71.3432L70.4304 5.9419L69.9849 5.69067L69.6263 5.48314L69.322 5.31931C67.4583 4.29208 65.5268 3.39431 63.5411 2.63234C63.0195 2.42481 62.6282 2.2719 62.3891 2.19544L62.0306 2.06437L61.6828 1.94422H61.6068L61.02 1.74761H60.9331H60.857L60.4549 1.61654L59.9225 1.46363L59.4661 1.33256L59.2161 1.25609H59.14H59.0423H58.901L58.3903 1.12503L57.9665 1.01579L57.5318 0.677197L57.271 0.611664L56.782 0.502431L56.4343 0.425981L55.967 0.327665H55.8801L55.5215 0.251215H55.3151H55.0542H54.9238H54.7825L54.4022 0.185682H54.1523L53.7394 0.120149H53.3699H53.1526H52.8266H52.5115L51.979 0.0545997H51.5009H51.3379H50.8924L50.2295 0H49.7731H49.2733H48.7407H47.6541C46.7051 0 45.7597 0 44.8179 0H44.2203H43.59H43.2097L42.3078 0.0764496H41.9926L40.743 0.218449L40.1562 0.294899H40.0367L39.1456 0.436898L38.4719 0.546131L37.2874 0.775496C35.9182 1.05948 34.5708 1.39809 33.2451 1.80222C32.4518 2.0316 31.7454 2.26098 30.8761 2.58865C27.2183 3.90365 23.7363 5.6683 20.5094 7.84243C20.1943 8.04996 19.8683 8.27933 19.5532 8.50871L19.4337 8.59609C18.8795 8.98931 18.347 9.39344 17.7928 9.81942L17.6624 9.91773H17.5972L17.1517 10.2782L16.2932 10.9991L15.8368 11.4032L14.9458 12.2006L14.7502 12.3862C13.294 13.7516 12.403 14.7455 12.3486 14.8111C11.9067 15.2989 11.4612 15.8123 11.0121 16.3512L10.0449 17.5199L9.97973 17.6072V17.6728C9.32774 18.5029 8.64316 19.4313 7.89337 20.5673C7.54564 21.0806 7.18704 21.6595 6.80671 22.2712L5.92652 23.7567L5.04633 25.4934C4.75294 26.0613 4.48127 26.5856 4.23134 27.1208C3.67404 28.2917 3.18775 29.4954 2.77519 30.7253C2.36226 31.9049 1.97108 33.1611 1.63422 34.3735C1.24192 35.7632 0.929903 37.1746 0.699709 38.6005C0.243209 41.1234 0.0104592 43.6821 0.00423327 46.2463C-0.0300905 48.7579 0.14436 51.2678 0.525807 53.7502C1.25922 58.6683 2.76299 63.4387 4.98114 67.884C5.43066 68.8425 5.93125 69.7759 6.48073 70.6802C7.12186 71.7725 7.82818 72.8647 8.58884 73.957L8.84963 74.3502C9.68691 75.5888 10.613 76.7643 11.6206 77.8673C12.2943 78.5991 13.1745 79.5931 13.8809 80.2921C14.5872 80.9912 15.5217 81.9087 16.2823 82.5422C17.119 83.274 17.4668 83.5689 18.2492 84.1587C19.2054 84.9233 20.1835 85.6223 21.1615 86.2777C21.4766 86.4962 21.8025 86.7037 22.1177 86.9003L23.2043 87.5557L23.9215 87.9489L24.0519 88.0253L25.0734 88.5824L25.3233 88.7135C26.4643 89.3033 27.9096 90.0132 29.4961 90.6467L30.887 91.1819L31.3651 91.3676L32.191 91.6516L32.7778 91.8482L32.9842 91.9138L33.2994 92.0121L33.821 92.1759L34.3425 92.3179C36.2498 92.8663 38.1922 93.2823 40.1562 93.5631H40.3409L40.8625 93.6286H40.9169L41.3624 93.6832L42.449 93.8034L44.0029 93.9235C44.4376 93.9235 44.9592 93.9891 45.4591 94H46.1762C46.8282 94 47.6976 94 48.3496 94C49.0015 94 49.8926 93.9126 50.5229 93.8798C51.9355 93.7488 53.7828 93.5194 55.2172 93.29C56.4323 93.0852 57.6364 92.819 58.8249 92.4927L59.6617 92.2414C60.5093 92.0011 61.3786 91.7281 62.0958 91.5096L62.9542 91.1819C63.6279 90.9417 64.3017 90.6795 64.9646 90.4064L65.3122 90.2863C66.0946 89.9805 67.0401 89.5217 67.8877 89.0848L68.9743 88.5387C70.0212 88.0075 71.037 87.4167 72.017 86.7692L72.1039 86.7146C72.908 86.2012 73.7012 85.6224 74.4836 85.0871L74.9835 84.7485L75.8311 84.0714L76.5049 83.5252L77.7871 82.4876C78.7297 81.7113 79.6225 80.8758 80.4602 79.9863L80.5254 79.9207L80.6559 79.7897C81.3188 79.0797 82.0902 78.2496 82.9813 77.2228V77.1573C84.4266 75.4666 85.7348 73.6623 86.8933 71.7615V71.696C87.2627 71.1171 87.6214 70.4836 87.9799 69.8283L88.4581 68.9654C88.6754 68.5612 88.8819 68.1571 89.0557 67.7967L89.2187 67.4362C89.5229 66.8027 89.8272 66.1473 90.1206 65.4701C90.5227 64.5417 90.9139 63.6024 91.2073 62.7723C91.7071 61.3851 92.1635 59.9105 92.5547 58.4032C92.8047 57.4529 93.022 56.5027 93.1741 55.6179C93.3263 54.7332 93.511 53.6846 93.6414 52.6688C93.6414 52.4395 93.6414 52.221 93.7175 51.9916C93.8696 50.6263 93.9674 49.2173 94 47.7646V47.5134C93.8334 46.3483 93.7175 45.1686 93.6523 43.9744Z" fill="url(#paint0_radial_2100_820)"/>
<defs>
<radialGradient id="paint0_radial_2100_820" cx="0" cy="0" r="1" gradientUnits="userSpaceOnUse" gradientTransform="translate(41.7583 51.3262) rotate(-0.361857) scale(54.5176 54.7987)">
<stop stop-color="#DD77C6"/>
<stop offset="0.02" stop-color="#DB75C4"/>
<stop offset="0.27" stop-color="#CA5CAF"/>
<stop offset="0.5" stop-color="#C04CA2"/>
<stop offset="0.68" stop-color="#BC479E"/>
<stop offset="0.74" stop-color="#BE4BA1"/>
<stop offset="0.81" stop-color="#C459AA"/>
<stop offset="0.88" stop-color="#CF6FB8"/>
<stop offset="0.95" stop-color="#DD8DCC"/>
<stop offset="1" stop-color="#EAA9DE"/>
</radialGradient>
</defs>
</svg>
