<svg width="11" height="14" viewBox="0 0 11 14" fill="none" xmlns="http://www.w3.org/2000/svg">
<path id="Vector" d="M5.52271 4.61591e-05C4.79853 -0.00289531 4.08092 0.134774 3.411 0.405143C2.74108 0.675513 2.13206 1.07326 1.61892 1.57557C1.10579 2.07787 0.698652 2.67484 0.420831 3.33221C0.14301 3.98958 -6.1827e-06 4.69441 2.00502e-10 5.40625C2.00502e-10 7.95296 4 12.5549 5.18182 13.8506C5.22017 13.8973 5.26864 13.9349 5.32369 13.9607C5.37875 13.9866 5.43899 14 5.5 14C5.56101 14 5.62125 13.9866 5.67631 13.9607C5.73136 13.9349 5.77983 13.8973 5.81818 13.8506C7 12.5549 11 7.95296 11 5.40625C11 3.9763 10.4237 2.60458 9.39713 1.59137C8.37059 0.578148 6.97746 0.00595504 5.52271 4.61591e-05ZM5.52271 7.81892C5.14518 7.85291 4.76458 7.80914 4.40522 7.69043C4.04585 7.57172 3.71562 7.38067 3.43559 7.12947C3.15555 6.87826 2.93188 6.57243 2.77884 6.23149C2.6258 5.89055 2.54676 5.52199 2.54676 5.14934C2.54676 4.77668 2.6258 4.40812 2.77884 4.06718C2.93188 3.72624 3.15555 3.42042 3.43559 3.16921C3.71562 2.91801 4.04585 2.72695 4.40522 2.60824C4.76458 2.48953 5.14518 2.44577 5.52271 2.47975C6.20014 2.54072 6.82994 2.84835 7.2885 3.34225C7.74707 3.83615 8.0013 4.48068 8.0013 5.14934C8.0013 5.818 7.74707 6.46252 7.2885 6.95642C6.82994 7.45032 6.20014 7.75795 5.52271 7.81892Z" fill="white"/>
</svg>
