<svg width="21" height="21" viewBox="0 0 21 21" fill="none" xmlns="http://www.w3.org/2000/svg">
<g id="Layer_1" clip-path="url(#clip0_2100_875)">
<path id="Vector" d="M10.4888 20.9776C16.2816 20.9776 20.9776 16.2816 20.9776 10.4888C20.9776 4.696 16.2816 0 10.4888 0C4.696 0 0 4.696 0 10.4888C0 16.2816 4.696 20.9776 10.4888 20.9776Z" fill="#010101"/>
<path id="Vector_2" d="M4.53953 5.2778L9.41495 10.7794C9.54682 10.9424 9.71394 11.0734 9.90375 11.1625C10.0936 11.2516 10.3011 11.2965 10.5108 11.2938C10.7199 11.2933 10.9264 11.247 11.1158 11.1581C11.3051 11.0693 11.4726 10.94 11.6066 10.7794L16.3926 5.36726C16.4368 5.35822 16.4825 5.35822 16.5267 5.36726C16.3151 5.27564 16.0865 5.2299 15.8559 5.23306H5.07628C4.85313 5.23237 4.63229 5.27808 4.42773 5.36726L4.53953 5.2778Z" fill="white"/>
<path id="Vector_3" d="M17.2653 5.81445C17.2653 5.81445 17.2653 5.81446 17.2653 5.99337L12.4794 11.4055C12.2427 11.6702 11.9533 11.8825 11.6298 12.0288C11.3063 12.1751 10.9558 12.2523 10.6008 12.2553C10.2453 12.2551 9.89387 12.1792 9.56996 12.0327C9.24606 11.8862 8.95708 11.6724 8.72219 11.4055L3.86916 5.88154C3.72512 6.14183 3.64824 6.43393 3.64551 6.73139V14.201C3.64551 14.64 3.81986 15.0609 4.13022 15.3713C4.44058 15.6816 4.86155 15.856 5.30047 15.856H15.9906C16.4295 15.856 16.8504 15.6816 17.1608 15.3713C17.4711 15.0609 17.6455 14.64 17.6455 14.201V6.77612C17.6203 6.42418 17.4876 6.08849 17.2653 5.81445Z" fill="white"/>
</g>
<defs>
<clipPath id="clip0_2100_875">
<rect width="21" height="21" fill="white"/>
</clipPath>
</defs>
</svg>
