<svg width="42" height="42" viewBox="0 0 42 42" fill="none" xmlns="http://www.w3.org/2000/svg">
<path id="Vector" d="M41.8446 19.6482C41.8473 19.6304 41.8473 19.6123 41.8446 19.5945C41.8217 19.0799 41.7731 18.5668 41.699 18.0572C41.699 17.9791 41.699 17.9059 41.665 17.8278C41.631 17.7497 41.631 17.6082 41.6164 17.4911C41.1781 14.7617 40.2115 12.1453 38.7712 9.78991C38.6159 9.53614 38.454 9.28724 38.2857 9.04323C37.4902 7.86486 36.5793 6.76946 35.5668 5.77342C35.0728 5.2798 34.5508 4.81539 34.0034 4.38252C33.6635 4.10434 33.3091 3.84569 32.9498 3.59191L32.8964 3.54798L32.8527 3.5187L32.6633 3.39182C32.4351 3.23077 32.1778 3.06484 31.9108 2.90379H31.8768L31.4689 2.65489L31.2699 2.54264L31.1096 2.44991L30.9737 2.37671C30.1409 1.91774 29.2779 1.51661 28.3907 1.17615C28.1576 1.08342 27.9828 1.0151 27.876 0.980941L27.7158 0.922379L27.5604 0.868696H27.5264L27.2643 0.780846H27.2254H27.1914L27.0118 0.722285L26.7739 0.653961L26.57 0.595399L26.4583 0.561233H26.4243H26.3806H26.3175L26.0893 0.502672L25.8999 0.453866L25.7057 0.302577L25.5892 0.273297L25.3707 0.22449L25.2153 0.190332L25.0065 0.146404H24.9677L24.8075 0.112245H24.7152H24.5987H24.5404H24.4773L24.3074 0.0829645H24.1957L24.0112 0.0536838H23.8461H23.749H23.6034H23.4626L23.2247 0.0243956H23.011H22.9382H22.7391L22.443 0H22.239H22.0157H21.7778H21.2922C20.8682 0 20.4458 0 20.025 0H19.758H19.4764H19.3065L18.9035 0.0341583H18.7627L18.2043 0.0976048L17.9421 0.131763H17.8887L17.4906 0.19521L17.1896 0.244016L16.6603 0.346498C16.0486 0.473386 15.4465 0.624677 14.8542 0.805249C14.4997 0.907736 14.1841 1.01022 13.7957 1.15663C12.1614 1.74419 10.6056 2.53265 9.16379 3.50406C9.02298 3.59679 8.87732 3.69928 8.73652 3.80176L8.68312 3.84081C8.4355 4.0165 8.19759 4.19707 7.94997 4.3874L7.89171 4.43133H7.86258L7.66353 4.59237L7.27994 4.91447L7.07603 5.09505L6.67789 5.45131L6.5905 5.53428C5.93989 6.14432 5.54175 6.58843 5.51747 6.61771C5.32003 6.8357 5.12097 7.06507 4.92028 7.30583L4.48816 7.82802L4.45903 7.86707V7.89635C4.16771 8.26725 3.86184 8.68208 3.52682 9.18964C3.37146 9.41901 3.21123 9.67767 3.0413 9.95096L2.64802 10.6147L2.25475 11.3907C2.12365 11.6444 2.00227 11.8787 1.8906 12.1178C1.64159 12.641 1.42431 13.1788 1.23998 13.7283C1.05548 14.2554 0.880696 14.8166 0.730182 15.3584C0.554899 15.9793 0.415489 16.6099 0.312636 17.247C0.108668 18.3743 0.00467327 19.5175 0.00189146 20.6633C-0.0134447 21.7854 0.0645013 22.9069 0.234935 24.016C0.562631 26.2135 1.23453 28.345 2.22561 30.3312C2.42647 30.7594 2.65013 31.1765 2.89564 31.5805C3.18211 32.0686 3.4977 32.5566 3.83757 33.0446L3.95409 33.2203C4.3282 33.7737 4.74199 34.2989 5.19218 34.7918C5.49321 35.1188 5.88649 35.5629 6.20208 35.8752C6.51768 36.1875 6.93521 36.5975 7.27508 36.8806C7.64894 37.2075 7.8043 37.3393 8.15388 37.6028C8.58115 37.9445 9.01815 38.2568 9.45512 38.5496C9.59592 38.6472 9.74156 38.7399 9.88236 38.8278L10.3679 39.1206L10.6884 39.2963L10.7466 39.3305L11.203 39.5794L11.3147 39.6379C11.8245 39.9015 12.4702 40.2187 13.1791 40.5017L13.8006 40.7409L14.0142 40.8238L14.3832 40.9507L14.6454 41.0386L14.7376 41.0679L14.8785 41.1118L15.1115 41.185L15.3445 41.2484C16.1967 41.4935 17.0646 41.6793 17.9421 41.8048H18.0247L18.2577 41.8341H18.282L18.4811 41.8585L18.9666 41.9122L19.6609 41.9658C19.8551 41.9658 20.0882 41.9951 20.3115 42H20.6319C20.9233 42 21.3117 42 21.603 42C21.8943 42 22.2924 41.9609 22.574 41.9463C23.2052 41.8877 24.0306 41.7853 24.6715 41.6828C25.2144 41.5912 25.7524 41.4723 26.2835 41.3265L26.6573 41.2143C27.0361 41.1069 27.4245 40.9849 27.7449 40.8873L28.1285 40.7409C28.4295 40.6335 28.7306 40.5164 29.0267 40.3944L29.1821 40.3407C29.5316 40.204 29.9541 39.9991 30.3328 39.8039L30.8183 39.5598C31.2861 39.3225 31.74 39.0585 32.1778 38.7692L32.2166 38.7448C32.5759 38.5154 32.9303 38.2568 33.2799 38.0177L33.5033 37.8664L33.882 37.5638L34.183 37.3198L34.7559 36.8561C35.1771 36.5093 35.576 36.136 35.9503 35.7385L35.9795 35.7093L36.0377 35.6507C36.3339 35.3335 36.6786 34.9626 37.0767 34.5038V34.4745C37.7225 33.7191 38.307 32.9129 38.8247 32.0637V32.0344C38.9897 31.7757 39.15 31.4927 39.3102 31.1999L39.5238 30.8143C39.6209 30.6337 39.7132 30.4532 39.7909 30.2921L39.8637 30.1311C39.9996 29.848 40.1356 29.5552 40.2667 29.2526C40.4463 28.8378 40.6211 28.4181 40.7522 28.0472C40.9755 27.4274 41.1795 26.7685 41.3542 26.0951C41.4659 25.6705 41.563 25.2459 41.631 24.8506C41.699 24.4553 41.7815 23.9868 41.8398 23.5329C41.8398 23.4304 41.8398 23.3328 41.8738 23.2303C41.9417 22.6203 41.9854 21.9907 42 21.3416V21.2294C41.9256 20.7088 41.8738 20.1817 41.8446 19.6482Z" fill="url(#paint0_radial_2100_827)"/>
<defs>
<radialGradient id="paint0_radial_2100_827" cx="0" cy="0" r="1" gradientUnits="userSpaceOnUse" gradientTransform="translate(18.658 22.933) rotate(-0.361857) scale(24.3589 24.4845)">
<stop stop-color="#DD77C6"/>
<stop offset="0.02" stop-color="#DB75C4"/>
<stop offset="0.27" stop-color="#CA5CAF"/>
<stop offset="0.5" stop-color="#C04CA2"/>
<stop offset="0.68" stop-color="#BC479E"/>
<stop offset="0.74" stop-color="#BE4BA1"/>
<stop offset="0.81" stop-color="#C459AA"/>
<stop offset="0.88" stop-color="#CF6FB8"/>
<stop offset="0.95" stop-color="#DD8DCC"/>
<stop offset="1" stop-color="#EAA9DE"/>
</radialGradient>
</defs>
</svg>
